<svg width="1296" height="318" viewBox="0 0 1296 318" fill="none" xmlns="http://www.w3.org/2000/svg">
<mask id="mask0_8_12032" style="mask-type:alpha" maskUnits="userSpaceOnUse" x="0" y="0" width="1296" height="318">
<rect width="1296" height="318" rx="20" fill="#2563EB"/>
</mask>
<g mask="url(#mask0_8_12032)">
<path opacity="0.2" d="M128.118 -83.7155C155.231 -33.1709 127.276 35.8889 63.6341 70.028C-0.00824658 104.167 -73.0048 89.2599 -100.118 38.7153C-127.231 -11.8293 -99.2764 -80.8891 -35.6341 -115.028C28.0083 -149.167 101.005 -134.26 128.118 -83.7155Z" stroke="#F1F5F9" stroke-width="7"/>
<path d="M1420.5 359.5C1420.5 420.199 1360.5 470.5 1285 470.5C1209.5 470.5 1149.5 420.199 1149.5 359.5C1149.5 298.801 1209.5 248.5 1285 248.5C1360.5 248.5 1420.5 298.801 1420.5 359.5Z" stroke="white" stroke-width="7"/>
</g>
</svg>
