<svg width="14" height="16" viewBox="0 0 14 16" fill="none" xmlns="http://www.w3.org/2000/svg">
<path d="M8 14.9995C8.00009 15.1699 8.04372 15.3374 8.12674 15.4862C8.20977 15.635 8.32944 15.7601 8.47439 15.8497C8.61935 15.9392 8.78479 15.9903 8.95501 15.9979C9.12523 16.0056 9.29458 15.9696 9.447 15.8935L13.447 13.8935C13.6131 13.8105 13.7528 13.6829 13.8504 13.525C13.9481 13.3671 13.9999 13.1851 14 12.9995V7.23547C13.9999 7.06507 13.9563 6.89753 13.8733 6.74874C13.7902 6.59994 13.6706 6.47483 13.5256 6.38527C13.3806 6.29571 13.2152 6.24468 13.045 6.23701C12.8748 6.22935 12.7054 6.2653 12.553 6.34147L8.553 8.34147C8.38692 8.42446 8.24722 8.55204 8.14955 8.70994C8.05188 8.86784 8.0001 9.0498 8 9.23547V14.9995ZM12.211 4.27547C12.3769 4.19233 12.5164 4.06468 12.6138 3.90679C12.7113 3.74891 12.7629 3.56702 12.7629 3.38147C12.7629 3.19592 12.7113 3.01403 12.6138 2.85614C12.5164 2.69826 12.3769 2.5706 12.211 2.48747L7.447 0.105466C7.3082 0.0361074 7.15516 0 7 0C6.84484 0 6.6918 0.0361074 6.553 0.105466L1.789 2.48747C1.62312 2.5706 1.48364 2.69826 1.38617 2.85614C1.28869 3.01403 1.23707 3.19592 1.23707 3.38147C1.23707 3.56702 1.28869 3.74891 1.38617 3.90679C1.48364 4.06468 1.62312 4.19233 1.789 4.27547L6.553 6.65747C6.6918 6.72682 6.84484 6.76293 7 6.76293C7.15516 6.76293 7.3082 6.72682 7.447 6.65747L12.211 4.27547ZM1.447 6.34147C1.29458 6.2653 1.12522 6.22935 0.955006 6.23701C0.784787 6.24468 0.619351 6.29571 0.474394 6.38527C0.329438 6.47483 0.209769 6.59994 0.126744 6.74874C0.0437189 6.89753 9.09694e-05 7.06507 0 7.23547V12.9995C9.91486e-05 13.1851 0.0518831 13.3671 0.149552 13.525C0.247222 13.6829 0.386919 13.8105 0.553 13.8935L4.553 15.8935C4.70542 15.9696 4.87477 16.0056 5.04499 15.9979C5.21521 15.9903 5.38065 15.9392 5.52561 15.8497C5.67056 15.7601 5.79023 15.635 5.87326 15.4862C5.95628 15.3374 5.99991 15.1699 6 14.9995V9.23547C5.9999 9.0498 5.94812 8.86784 5.85045 8.70994C5.75278 8.55204 5.61308 8.42446 5.447 8.34147L1.447 6.34147Z" fill="#B0BABF"/>
</svg>
