<svg width="23" height="23" viewBox="0 0 23 23" fill="none" xmlns="http://www.w3.org/2000/svg">
<path fill-rule="evenodd" clip-rule="evenodd" d="M11.2 2.68945C6.12669 2.68945 2.07501 6.65005 2.07501 11.4617C2.07501 16.2733 6.12669 20.2339 11.2 20.2339C16.2733 20.2339 20.325 16.2733 20.325 11.4617C20.325 6.65005 16.2733 2.68945 11.2 2.68945ZM0.0750122 11.4617C0.0750122 5.47922 5.08956 0.689453 11.2 0.689453C17.3105 0.689453 22.325 5.47922 22.325 11.4617C22.325 17.4442 17.3105 22.2339 11.2 22.2339C5.08956 22.2339 0.0750122 17.4442 0.0750122 11.4617ZM15.2945 8.59563C15.6781 8.99301 15.6669 9.62608 15.2695 10.0096L10.7695 14.3528C10.382 14.7268 9.76801 14.7268 9.38055 14.3528L7.13055 12.1812C6.73317 11.7977 6.72194 11.1646 7.10548 10.7672C7.48902 10.3699 8.12209 10.3586 8.51947 10.7422L10.075 12.2435L13.8806 8.57056C14.2779 8.18702 14.911 8.19824 15.2945 8.59563Z" fill="#2563EB"/>
</svg>
