<svg width="31" height="14" viewBox="0 0 31 14" fill="none" xmlns="http://www.w3.org/2000/svg">
<path fill-rule="evenodd" clip-rule="evenodd" d="M17.1439 6.89403C17.529 7.42513 18.3182 8.42587 19.3575 9.29717C20.4351 10.2006 21.6969 10.894 22.9997 10.894C24.3025 10.894 25.5643 10.2006 26.6419 9.29717C27.6812 8.42587 28.4705 7.42513 28.8556 6.89403C28.4705 6.36293 27.6812 5.36219 26.6419 4.49089C25.5643 3.58747 24.3025 2.89403 22.9997 2.89403C21.6969 2.89403 20.4351 3.58747 19.3575 4.49089C18.3182 5.36219 17.529 6.36293 17.1439 6.89403ZM18.5009 3.46913C19.6754 2.48449 21.2372 1.5607 22.9997 1.5607C24.7622 1.5607 26.324 2.48449 27.4985 3.46913C28.6844 4.46332 29.5618 5.59213 29.9673 6.15603C30.2862 6.59961 30.2862 7.18845 29.9673 7.63203C29.5618 8.19594 28.6844 9.32474 27.4985 10.3189C26.324 11.3036 24.7622 12.2274 22.9997 12.2274C21.2372 12.2274 19.6754 11.3036 18.5009 10.3189C17.315 9.32474 16.4376 8.19594 16.0322 7.63203C15.7132 7.18845 15.7132 6.59961 16.0322 6.15603C16.4376 5.59213 17.315 4.46332 18.5009 3.46913Z" fill="#64748B"/>
<path fill-rule="evenodd" clip-rule="evenodd" d="M22.9997 8.22737C23.7361 8.22737 24.333 7.63041 24.333 6.89403C24.333 6.15765 23.7361 5.5607 22.9997 5.5607C22.2633 5.5607 21.6664 6.15765 21.6664 6.89403C21.6664 7.63041 22.2633 8.22737 22.9997 8.22737ZM22.9997 9.5607C24.4725 9.5607 25.6664 8.36679 25.6664 6.89403C25.6664 5.42127 24.4725 4.22737 22.9997 4.22737C21.5269 4.22737 20.333 5.42127 20.333 6.89403C20.333 8.36679 21.5269 9.5607 22.9997 9.5607Z" fill="#64748B"/>
<path fill-rule="evenodd" clip-rule="evenodd" d="M2.14385 6.89403C2.52895 7.42513 3.31821 8.42587 4.35749 9.29717C5.4351 10.2006 6.69691 10.894 7.9997 10.894C9.30249 10.894 10.5643 10.2006 11.6419 9.29717C12.6812 8.42587 13.4705 7.42513 13.8556 6.89403C13.4705 6.36293 12.6812 5.36219 11.6419 4.49089C10.5643 3.58747 9.30249 2.89403 7.9997 2.89403C6.69691 2.89403 5.4351 3.58747 4.35749 4.49089C3.31821 5.36219 2.52895 6.36293 2.14385 6.89403ZM3.50088 3.46913C4.67537 2.48449 6.23723 1.5607 7.9997 1.5607C9.76218 1.5607 11.324 2.48449 12.4985 3.46913C13.6844 4.46332 14.5618 5.59213 14.9673 6.15603C15.2862 6.59961 15.2862 7.18845 14.9673 7.63203C14.5618 8.19594 13.6844 9.32474 12.4985 10.3189C11.324 11.3036 9.76218 12.2274 7.9997 12.2274C6.23723 12.2274 4.67537 11.3036 3.50088 10.3189C2.31501 9.32474 1.43758 8.19594 1.03215 7.63203C0.713241 7.18845 0.71324 6.59961 1.03215 6.15603C1.43757 5.59213 2.31501 4.46332 3.50088 3.46913Z" fill="#64748B"/>
<path fill-rule="evenodd" clip-rule="evenodd" d="M7.9997 8.22737C8.73608 8.22737 9.33304 7.63041 9.33304 6.89403C9.33304 6.15765 8.73608 5.5607 7.9997 5.5607C7.26332 5.5607 6.66637 6.15765 6.66637 6.89403C6.66637 7.63041 7.26332 8.22737 7.9997 8.22737ZM7.9997 9.5607C9.47246 9.5607 10.6664 8.36679 10.6664 6.89403C10.6664 5.42127 9.47246 4.22737 7.9997 4.22737C6.52694 4.22737 5.33304 5.42127 5.33304 6.89403C5.33304 8.36679 6.52694 9.5607 7.9997 9.5607Z" fill="#64748B"/>
<path d="M17 1L29 13" stroke="#64748B"/>
</svg>
