<svg width="16" height="17" viewBox="0 0 16 17" fill="none" xmlns="http://www.w3.org/2000/svg">
<path fill-rule="evenodd" clip-rule="evenodd" d="M15.68 9.07588C15.68 8.5086 15.6291 7.96315 15.5345 7.43951H8V10.5341H12.3055C12.12 11.5341 11.5564 12.3813 10.7091 12.9486V14.9559H13.2945C14.8073 13.5632 15.68 11.5122 15.68 9.07588Z" fill="#191D23"/>
<path fill-rule="evenodd" clip-rule="evenodd" d="M7.99968 16.8939C10.1597 16.8939 11.9706 16.1776 13.2942 14.9558L10.7088 12.9485C9.9924 13.4285 9.07604 13.7121 7.99968 13.7121C5.91604 13.7121 4.1524 12.3048 3.52331 10.4139H0.850586V12.4867C2.16695 15.1012 4.8724 16.8939 7.99968 16.8939Z" fill="#191D23"/>
<path fill-rule="evenodd" clip-rule="evenodd" d="M3.52364 10.4141C3.36364 9.93406 3.27273 9.42133 3.27273 8.89406C3.27273 8.36679 3.36364 7.85406 3.52364 7.37406V5.30133H0.850909C0.309091 6.38133 0 7.60315 0 8.89406C0 10.185 0.309091 11.4068 0.850909 12.4868L3.52364 10.4141Z" fill="#191D23"/>
<path fill-rule="evenodd" clip-rule="evenodd" d="M7.99968 4.07586C9.17422 4.07586 10.2288 4.4795 11.0579 5.27222L13.3524 2.97768C11.9669 1.68677 10.156 0.894043 7.99968 0.894043C4.8724 0.894043 2.16695 2.68677 0.850586 5.30132L3.52331 7.37404C4.1524 5.48313 5.91604 4.07586 7.99968 4.07586Z" fill="#191D23"/>
</svg>
