<svg width="57" height="56" viewBox="0 0 57 56" fill="none" xmlns="http://www.w3.org/2000/svg">
<rect x="4.83331" y="4" width="48" height="48" rx="24" fill="#F4EBFF"/>
<g clip-path="url(#clip0_8_1807)">
<path d="M40.8281 20.0022L34.9922 20.7053C34.7988 20.7287 34.7168 20.966 34.8545 21.1037L36.5918 22.841L29.9707 29.4621L26.9883 26.4826C26.8037 26.2981 26.5078 26.301 26.3262 26.4826L16.9014 35.9104C16.8578 35.9544 16.8333 36.0139 16.8333 36.0759C16.8333 36.1379 16.8578 36.1974 16.9014 36.2414L18.2198 37.5656C18.3106 37.6564 18.46 37.6564 18.5508 37.5656L26.6573 29.4621L29.6367 32.4416C29.8213 32.6232 30.1172 32.6232 30.2989 32.4416L38.25 24.4963L39.9873 26.2336C40.0185 26.2646 40.0577 26.2862 40.1005 26.296C40.1433 26.3058 40.188 26.3034 40.2295 26.2891C40.271 26.2747 40.3077 26.249 40.3353 26.2149C40.3629 26.1807 40.3804 26.1395 40.3858 26.0959L41.0889 20.26C41.1094 20.1106 40.9805 19.9816 40.8281 20.0022Z" fill="#4094F7"/>
</g>
<rect x="4.83331" y="4" width="48" height="48" rx="24" stroke="#F9F5FF" stroke-width="8"/>
<defs>
<clipPath id="clip0_8_1807">
<rect width="30" height="30" fill="white" transform="translate(16.8333 20)"/>
</clipPath>
</defs>
</svg>
