<svg width="18" height="17" viewBox="0 0 18 17" fill="none" xmlns="http://www.w3.org/2000/svg">
<path d="M7.60673 1.44422C7.94551 0.401568 9.42058 0.401569 9.75936 1.44422L10.9698 5.16956C11.1213 5.63585 11.5558 5.95155 12.0461 5.95155H15.9632C17.0595 5.95155 17.5153 7.35443 16.6284 7.99883L13.4594 10.3012C13.0628 10.5894 12.8968 11.1002 13.0483 11.5665L14.2587 15.2918C14.5975 16.3345 13.4041 17.2015 12.5172 16.5571L9.34824 14.2547C8.95159 13.9666 8.41449 13.9666 8.01784 14.2547L4.84888 16.5571C3.96194 17.2015 2.76858 16.3345 3.10736 15.2918L4.3178 11.5665C4.46931 11.1002 4.30333 10.5894 3.90668 10.3012L0.737718 7.99882C-0.149215 7.35443 0.306608 5.95155 1.40292 5.95155H5.31997C5.81026 5.95155 6.24478 5.63585 6.39629 5.16956L7.60673 1.44422Z" fill="#D4D4D8"/>
</svg>
