<svg width="18" height="17" viewBox="0 0 18 17" fill="none" xmlns="http://www.w3.org/2000/svg">
<path d="M8.24076 1.44428C8.57954 0.401629 10.0546 0.40163 10.3934 1.44428L11.6038 5.16962C11.7553 5.63591 12.1899 5.95161 12.6801 5.95161H16.5972C17.6935 5.95161 18.1493 7.35449 17.2624 7.99889L14.0934 10.3013C13.6968 10.5895 13.5308 11.1003 13.6823 11.5666L14.8928 15.2919C15.2315 16.3346 14.0382 17.2016 13.1512 16.5572L9.98228 14.2548C9.58563 13.9666 9.04852 13.9666 8.65188 14.2548L5.48291 16.5572C4.59598 17.2016 3.40262 16.3346 3.74139 15.2919L4.95183 11.5666C5.10334 11.1003 4.93736 10.5895 4.54072 10.3013L1.37175 7.99889C0.484818 7.35449 0.940642 5.95161 2.03695 5.95161H5.95401C6.44429 5.95161 6.87882 5.63591 7.03032 5.16962L8.24076 1.44428Z" fill="#F59E0B"/>
</svg>
