<svg width="15" height="15" viewBox="0 0 15 15" fill="none" xmlns="http://www.w3.org/2000/svg">
<path d="M6.73635 1.19697C7.02536 0.320776 8.28375 0.320777 8.57276 1.19697L9.60538 4.32758C9.73463 4.71943 10.1053 4.98473 10.5236 4.98473H13.8652C14.8005 4.98473 15.1893 6.16364 14.4327 6.70516L11.7293 8.63998C11.3909 8.88216 11.2493 9.31142 11.3785 9.70327L12.4112 12.8339C12.7002 13.7101 11.6821 14.4387 10.9255 13.8972L8.22203 11.9623C7.88365 11.7202 7.42545 11.7202 7.08707 11.9623L4.38364 13.8972C3.627 14.4387 2.60894 13.7101 2.89796 12.8339L3.93058 9.70327C4.05983 9.31142 3.91823 8.88216 3.57985 8.63998L0.876418 6.70516C0.119778 6.16364 0.50864 4.98473 1.4439 4.98473H4.78553C5.20379 4.98473 5.57448 4.71943 5.70373 4.32758L6.73635 1.19697Z" fill="url(#paint0_linear_12_3986)"/>
<defs>
<linearGradient id="paint0_linear_12_3986" x1="0.476593" y1="0.539825" x2="16.5325" y2="3.00333" gradientUnits="userSpaceOnUse">
<stop stop-color="#6DDCFF"/>
<stop offset="1" stop-color="#7F60F9"/>
</linearGradient>
</defs>
</svg>
