<svg width="22" height="17" viewBox="0 0 22 17" fill="none" xmlns="http://www.w3.org/2000/svg">
<path d="M2 17C1.45 17 0.979002 16.804 0.587002 16.412C0.195002 16.02 -0.000664969 15.5493 1.69779e-06 15V2C1.69779e-06 1.45 0.196002 0.979002 0.588002 0.587002C0.980002 0.195002 1.45067 -0.000664969 2 1.69779e-06H20C20.55 1.69779e-06 21.021 0.196001 21.413 0.588001C21.805 0.980001 22.0007 1.45067 22 2V15C22 15.55 21.804 16.021 21.412 16.413C21.02 16.805 20.5493 17.0007 20 17H2ZM2 15H20V2H2V15ZM7 13H15V12H7V13ZM4 10H6V8H4V10ZM8 10H10V8H8V10ZM12 10H14V8H12V10ZM16 10H18V8H16V10ZM4 6H6V4H4V6ZM8 6H10V4H8V6ZM12 6H14V4H12V6ZM16 6H18V4H16V6Z" fill="#B6B6B6"/>
</svg>
