<svg width="53" height="48" viewBox="0 0 53 48" fill="none" xmlns="http://www.w3.org/2000/svg">
<path d="M44.1668 7.90351H13.2502C10.8144 7.90351 8.8335 9.67587 8.8335 11.8553V21.7347H13.2502V15.807L27.3835 25.2912C27.7659 25.5474 28.2308 25.6859 28.7085 25.6859C29.1862 25.6859 29.6511 25.5474 30.0335 25.2912L44.1668 15.807V33.5899H26.5002V37.5417H44.1668C46.6026 37.5417 48.5835 35.7693 48.5835 33.5899V11.8553C48.5835 9.67587 46.6026 7.90351 44.1668 7.90351ZM28.7085 21.2407L14.7209 11.8553H42.6961L28.7085 21.2407Z" fill="#2F2F2F"/>
<path d="M4.4165 23.7105H19.8748V27.6623H4.4165V23.7105ZM8.83317 29.6382H22.0832V33.5899H8.83317V29.6382ZM15.4582 35.5658H24.2915V39.5175H15.4582V35.5658Z" fill="#2F2F2F"/>
</svg>
